<?xml version="1.0" encoding="utf-8"?>
<!-- Generator: Adobe Illustrator 22.0.1, SVG Export Plug-In . SVG Version: 6.00 Build 0)  -->
<svg version="1.1" id="Layer_2" xmlns="http://www.w3.org/2000/svg" xmlns:xlink="http://www.w3.org/1999/xlink" x="0px" y="0px"
	 viewBox="0 0 210.7 205" style="enable-background:new 0 0 210.7 205;" xml:space="preserve">
<g>
	<g>
		<path d="M63.9,47.8C60.8,55,58.4,62.4,57,70.1c-0.8,4.2-3.2,12,2.1,14.2c4.6,1.9,10.9-1.7,14.9-3.5c7-3.1,13.7-7.2,21-9.7
			c3.2-1.1,8.1-2.9,11.5-2.1c6.8,1.6,3.5,10.6,2.2,14.7c-2.3,7.6-6,14.8-8.2,22.5c-0.8,3-3.1,8.9,2,8.6c2.6-0.2,5.5-2.4,8-3.2
			c2.1-0.6,5.3-1.9,7.2,0.2c1,1.1,1.2,5.3,1.5,6.8c0.4,1.9,3.3,1.1,2.9-0.8c-1-4.6-0.8-10.9-6.8-10.3c-3.3,0.3-6.7,1.4-9.7,2.8
			c-0.5,0.2-1,0.4-1.5,0.7c-1.3,1.2-1.8,1-1.5-0.6c-0.3-1.1,1-3.7,1.3-4.9c2.4-7.6,6-14.8,8.1-22.5c1.2-4.3,3.2-11.1-0.4-14.8
			c-3.5-3.6-10.3-1.9-14.5-0.8c-6.4,1.7-12.4,4.8-18.3,7.8c-3.4,1.7-6.8,3.4-10.4,4.7c-1.4,0.5-4.1,2-5.6,1.7
			c-1.4-0.9-2.7-1.7-4.1-2.6c0.1-1.6,0.3-3.1,0.5-4.6c1.3-8.7,3.7-17.1,7.1-25.1C67.2,47.6,64.6,46,63.9,47.8L63.9,47.8z"/>
	</g>
</g>
</svg>
