<?xml version="1.0" encoding="utf-8"?>
<!-- Generator: Adobe Illustrator 22.0.1, SVG Export Plug-In . SVG Version: 6.00 Build 0)  -->
<svg version="1.1" id="Layer_2" xmlns="http://www.w3.org/2000/svg" xmlns:xlink="http://www.w3.org/1999/xlink" x="0px" y="0px"
	 viewBox="0 0 210.7 205" style="enable-background:new 0 0 210.7 205;" xml:space="preserve">
<style type="text/css">
	.st0{fill:none;stroke:#000000;stroke-miterlimit:10;}
</style>
<path class="st0" d="M82.5,45.1c-6.4-0.1-12.3,4.1-15.3,9.7s-3.4,12.3-2.3,18.6c2.4,13.7,12.1,25.9,24.9,31.4
	c3.1,1.3,6.5,2.3,9.9,2.2c3.5-0.1,6.9-1.5,9.8-3.3c5.1-3.3,9.1-8.3,11.2-14c0.8-2.2,1.4-4.6,1-6.9c-0.5-3.6-3.2-6.7-6.5-8.4
	c-3.2-1.7-7-2.3-10.6-2.5c-2.4-0.1-5,0-6.7,1.7c-1,1-1.5,2.5-1.8,3.9c-0.4,2.3-0.2,4.9,1.2,6.9c1.3,2,3.9,3.2,6.2,2.4
	c2.3-0.8,3.6-3.8,2.3-5.8c-0.4-0.9-2-1-2.4,0"/>
</svg>
