<?xml version="1.0" encoding="utf-8"?>
<!-- Generator: Adobe Illustrator 22.0.1, SVG Export Plug-In . SVG Version: 6.00 Build 0)  -->
<svg version="1.1" xmlns="http://www.w3.org/2000/svg" xmlns:xlink="http://www.w3.org/1999/xlink" x="0px" y="0px"
	 viewBox="0 0 200 200" style="enable-background:new 0 0 200 200;" xml:space="preserve">
<style type="text/css">
	.st0{display:none;opacity:0.25;}
	.st1{display:none;}
	.st2{display:inline;fill:#FFFFFF;stroke:#000000;stroke-miterlimit:10;}
	.st3{display:inline;fill:none;stroke:#000000;stroke-miterlimit:10;}
	.st4{fill:none;stroke:#000000;stroke-miterlimit:10;}
</style>
<g id="Layer_8">
	<polygon class="st4" points="139.5,29.5 65.5,7.5 30.5,72.5 	"/>
	<polygon class="st4" points="139.5,29.5 158.5,31.5 65.5,7.5 	"/>
	<polygon class="st4" points="139.5,29.5 158.5,31.5 199.5,110.5 	"/>
	<polygon class="st4" points="139.5,29.5 199.5,110.5 124.5,147.5 	"/>
	<polygon class="st4" points="124.5,147.5 139.5,29.5 30.5,72.5 	"/>
	<polygon class="st4" points="30.5,72.5 37.5,173.5 124.5,147.5 	"/>
	<polygon class="st4" points="30.5,72.5 65.5,7.5 11.5,89.5 	"/>
	<polygon class="st4" points="37.5,173.5 11.5,89.5 30.5,72.5 	"/>
	<polygon class="st4" points="124.5,147.5 136.5,188.5 37.5,173.5 	"/>
	<polygon class="st4" points="124.5,147.5 199.5,110.5 136.5,188.5 	"/>
</g>
</svg>
