<?xml version="1.0" encoding="utf-8"?>
<!-- Generator: Adobe Illustrator 22.0.1, SVG Export Plug-In . SVG Version: 6.00 Build 0)  -->
<svg version="1.1" xmlns="http://www.w3.org/2000/svg" xmlns:xlink="http://www.w3.org/1999/xlink" x="0px" y="0px"
	 viewBox="0 0 200 200" style="enable-background:new 0 0 200 200;" xml:space="preserve">
<style type="text/css">
	.st0{opacity:0.25;}
	.st1{display:none;}
	.st2{display:inline;fill:#FFFFFF;stroke:#000000;stroke-miterlimit:10;}
	.st3{display:inline;fill:none;stroke:#000000;stroke-miterlimit:10;}
	.st4{fill:none;stroke:#000000;stroke-miterlimit:10;}
</style>
<g id="Layer_1" class="st0">
	
		<image style="overflow:visible;" width="982" height="532" xlink:href="../../../../../Desktop/Screen Shot 2018-11-24 at 6.16.35 PM.png"  transform="matrix(0.7017 0 0 0.7017 -234.0526 -96.7352)">
	</image>
</g>
<g id="Layer_2" class="st1">
	<line class="st2" x1="15.7" y1="130.5" x2="80" y2="33.9"/>
	<line class="st2" x1="19.4" y1="42.6" x2="15.7" y2="130.5"/>
	<line class="st2" x1="81.1" y1="33.3" x2="19.4" y2="42.6"/>
	<line class="st2" x1="112.9" y1="3.3" x2="81.1" y2="33.3"/>
	<line class="st2" x1="84.9" y1="196" x2="127.9" y2="145.5"/>
	<line class="st2" x1="15.7" y1="130.5" x2="84.9" y2="196"/>
	<line class="st2" x1="127.9" y1="145.5" x2="15.7" y2="130.5"/>
	<line class="st2" x1="184" y1="57.6" x2="80" y2="33.9"/>
	<line class="st2" x1="127.9" y1="145.5" x2="80" y2="33.9"/>
	<line class="st2" x1="127.9" y1="145.5" x2="184" y2="57.6"/>
	<line class="st2" x1="84.9" y1="196" x2="178.4" y2="154.9"/>
	<line class="st2" x1="178.4" y1="154.9" x2="127.9" y2="145.5"/>
	<line class="st2" x1="184" y1="57.6" x2="178.4" y2="154.9"/>
	<line class="st2" x1="112.9" y1="3.3" x2="183.7" y2="57.3"/>
	<line class="st2" x1="19.4" y1="42.6" x2="112.9" y2="3.3"/>
</g>
<g id="Layer_3" class="st1">
	<polygon class="st3" points="79.5,33.5 112.5,4.5 184.5,58.5 	"/>
	<polygon class="st3" points="79.5,33.5 19.5,41.5 112.5,4.5 	"/>
	<polygon class="st3" points="79.5,33.5 19.5,41.5 15.5,129.5 	"/>
	<polygon class="st3" points="79.5,33.5 128.5,146.5 15.5,129.5 	"/>
	<polygon class="st3" points="184.5,58.5 128.5,146.5 79.5,33.5 	"/>
	<polygon class="st3" points="178.5,153.5 128.5,146.5 184.5,58.5 	"/>
	<polygon class="st3" points="84.5,195.5 128.5,146.5 178.5,153.5 	"/>
	<polygon class="st3" points="15.5,129.5 128.5,146.5 83.5,196.5 	"/>
</g>
<g id="Layer_4">
	<polygon class="st4" points="15.5,129.5 19.5,41.5 112.5,3.5 184.5,58.5 178.5,154.5 84.5,196.5 	"/>
	<polyline class="st4" points="19.5,41.5 80.5,33.5 184.5,58.5 128.5,146.5 84.5,196.5 	"/>
	<polyline class="st4" points="178.5,154.5 128.5,146.5 15.5,129.5 79.3,33.8 112.5,3.5 	"/>
	<line class="st4" x1="80.5" y1="33.5" x2="128.5" y2="146.5"/>
</g>
</svg>
